<?xml version="1.0" encoding="UTF-8" standalone="no"?>
<!-- Created with Inkscape (http://www.inkscape.org/) -->

<svg
   xmlns:dc="http://purl.org/dc/elements/1.1/"
   xmlns:cc="http://creativecommons.org/ns#"
   xmlns:rdf="http://www.w3.org/1999/02/22-rdf-syntax-ns#"
   xmlns:svg="http://www.w3.org/2000/svg"
   xmlns="http://www.w3.org/2000/svg"
   xmlns:xlink="http://www.w3.org/1999/xlink"
   xmlns:sodipodi="http://sodipodi.sourceforge.net/DTD/sodipodi-0.dtd"
   xmlns:inkscape="http://www.inkscape.org/namespaces/inkscape"
   width="8.5in"
   height="11in"
   viewBox="0 0 765 990"
   id="svg2"
   version="1.1"
   inkscape:version="0.91 r13725"
   sodipodi:docname="0-cover.svg">
  <defs
     id="defs4">
    <linearGradient
       id="linearGradient6219"
       inkscape:collect="always">
      <stop
         id="stop6231"
         offset="0"
         style="stop-color:#b1b1b1;stop-opacity:1" />
      <stop
         id="stop6233"
         offset="1"
         style="stop-color:#cccccc;stop-opacity:1" />
    </linearGradient>
    <clipPath
       clipPathUnits="userSpaceOnUse"
       id="clipPath6179">
      <rect
         style="opacity:1;fill:#549f8f;fill-opacity:1;stroke:none;stroke-width:0.1;stroke-linejoin:round;stroke-miterlimit:4;stroke-dasharray:none;stroke-dashoffset:19.60000038;stroke-opacity:1"
         id="rect6181"
         width="765"
         height="990"
         x="0"
         y="62.362206" />
    </clipPath>
    <clipPath
       clipPathUnits="userSpaceOnUse"
       id="clipPath6188">
      <rect
         y="-41.637794"
         x="0"
         height="990"
         width="765"
         id="rect6190"
         style="opacity:1;fill:#549f8f;fill-opacity:1;stroke:none;stroke-width:0.1;stroke-linejoin:round;stroke-miterlimit:4;stroke-dasharray:none;stroke-dashoffset:19.60000038;stroke-opacity:1" />
    </clipPath>
    <radialGradient
       inkscape:collect="always"
       xlink:href="#linearGradient6219"
       id="radialGradient6227"
       cx="-325"
       cy="1422.3622"
       fx="-325"
       fy="1422.3622"
       r="85.000008"
       gradientTransform="matrix(0.54548236,0.54548236,0.1925231,-0.1925231,57.132343,1414.3232)"
       gradientUnits="userSpaceOnUse" />
    <clipPath
       clipPathUnits="userSpaceOnUse"
       id="clipPath6306">
      <circle
         r="25"
         cy="915.039"
         cx="900.21661"
         id="circle6308"
         style="opacity:1;fill:#ffffff;fill-opacity:1;stroke:#000000;stroke-width:1;stroke-linecap:butt;stroke-linejoin:bevel;stroke-miterlimit:4;stroke-dasharray:none;stroke-dashoffset:19.60000038;stroke-opacity:1" />
    </clipPath>
    <clipPath
       clipPathUnits="userSpaceOnUse"
       id="clipPath6312">
      <path
         inkscape:connector-curvature="0"
         id="path6314"
         d="m 874.87279,902.62937 25.25087,12.40961 -25.25087,12.40961"
         style="fill:none;fill-rule:evenodd;stroke:#000000;stroke-width:1;stroke-linecap:butt;stroke-linejoin:miter;stroke-miterlimit:4;stroke-dasharray:none;stroke-opacity:1" />
    </clipPath>
  </defs>
  <sodipodi:namedview
     id="base"
     pagecolor="#ffffff"
     bordercolor="#666666"
     borderopacity="1.0"
     inkscape:pageopacity="0.0"
     inkscape:pageshadow="2"
     inkscape:zoom="1.3513998"
     inkscape:cx="380.95899"
     inkscape:cy="646.33396"
     inkscape:document-units="px"
     inkscape:current-layer="g6378"
     showgrid="true"
     units="in"
     inkscape:snap-page="true"
     inkscape:snap-grids="false"
     inkscape:snap-bbox="true"
     inkscape:bbox-nodes="true"
     inkscape:snap-global="true"
     inkscape:snap-center="true"
     inkscape:snap-object-midpoints="true"
     inkscape:object-nodes="true"
     inkscape:snap-bbox-edge-midpoints="true"
     inkscape:snap-bbox-midpoints="true"
     inkscape:window-width="1920"
     inkscape:window-height="1016"
     inkscape:window-x="0"
     inkscape:window-y="27"
     inkscape:window-maximized="0"
     inkscape:bbox-paths="true"
     inkscape:object-paths="true"
     inkscape:snap-intersection-paths="true"
     inkscape:snap-smooth-nodes="true">
    <inkscape:grid
       type="xygrid"
       id="grid6292"
       spacingx="5"
       spacingy="5"
       visible="false" />
  </sodipodi:namedview>
  <metadata
     id="metadata7">
    <rdf:RDF>
      <cc:Work
         rdf:about="">
        <dc:format>image/svg+xml</dc:format>
        <dc:type
           rdf:resource="http://purl.org/dc/dcmitype/StillImage" />
        <dc:title></dc:title>
      </cc:Work>
    </rdf:RDF>
  </metadata>
  <g
     inkscape:label="Layer 1"
     inkscape:groupmode="layer"
     id="layer1"
     transform="translate(0,-62.362205)">
    <rect
       style="opacity:1;fill:#505678;fill-opacity:1;stroke:none;stroke-width:0.1;stroke-linejoin:round;stroke-miterlimit:4;stroke-dasharray:none;stroke-dashoffset:19.60000038;stroke-opacity:1"
       id="rect6169"
       width="765"
       height="990"
       x="0"
       y="62.362206" />
    <ellipse
       style="opacity:1;fill:#316e6f;fill-opacity:1;stroke:none;stroke-width:0.1;stroke-linejoin:round;stroke-miterlimit:4;stroke-dasharray:none;stroke-dashoffset:19.60000038;stroke-opacity:1"
       id="path6171"
       clip-path="url(#clipPath6179)"
       cx="592.85712"
       cy="904.50507"
       rx="724.28577"
       ry="442.14285"
       transform="translate(0,-1.0107424e-6)" />
    <ellipse
       ry="410.71429"
       rx="724.28577"
       cy="904.50507"
       cx="592.85712"
       clip-path="url(#clipPath6179)"
       id="ellipse6185"
       style="opacity:1;fill:#3d635a;fill-opacity:1;stroke:none;stroke-width:0.1;stroke-linejoin:round;stroke-miterlimit:4;stroke-dasharray:none;stroke-dashoffset:19.60000038;stroke-opacity:1"
       transform="translate(0,-1.0107424e-6)" />
    <g
       id="g6378"
       transform="matrix(1.0890972,0,0,1.0890972,-69.43198,-44.15712)">
      <g
         transform="translate(54.251333,-256.24613)"
         id="g6270">
        <path
           style="opacity:1;fill:url(#radialGradient6227);fill-opacity:1;stroke:none;stroke-width:0.1;stroke-linejoin:round;stroke-miterlimit:4;stroke-dasharray:none;stroke-dashoffset:19.60000038;stroke-opacity:1"
           d="m 93.685103,930.47495 0,5.45484 87.277177,87.27721 5.45482,0 27.27412,-27.27418 0,-5.45478 -87.27718,-87.27719 -5.45482,0 z"
           id="rect6200"
           inkscape:connector-curvature="0"
           sodipodi:nodetypes="ccccccccc" />
        <g
           id="g6209"
           transform="matrix(0.70710678,0.70710678,0.70710678,-0.70710678,-789.43196,2074.0341)">
          <rect
             y="1432.3622"
             x="60"
             height="40"
             width="40"
             id="rect6204"
             style="opacity:1;fill:#556aff;fill-opacity:1;stroke:none;stroke-width:0.1;stroke-linejoin:round;stroke-miterlimit:4;stroke-dasharray:none;stroke-dashoffset:19.60000038;stroke-opacity:1" />
          <path
             sodipodi:nodetypes="cccc"
             inkscape:connector-curvature="0"
             id="rect6206"
             d="m 60,1432.3622 40,40 -40,0 z"
             style="opacity:1;fill:#fff755;fill-opacity:1;stroke:none;stroke-width:0.1;stroke-linejoin:round;stroke-miterlimit:4;stroke-dasharray:none;stroke-dashoffset:19.60000038;stroke-opacity:1" />
        </g>
        <g
           id="g6238"
           transform="matrix(1,0,0,-1,422.49999,2616.2144)">
          <rect
             y="1412.3622"
             x="-100"
             height="20"
             width="120"
             id="rect6202"
             style="opacity:0.8;fill:#202020;fill-opacity:1;stroke:none;stroke-width:0.1;stroke-linejoin:round;stroke-miterlimit:4;stroke-dasharray:none;stroke-dashoffset:19.60000038;stroke-opacity:1" />
          <rect
             y="1422.3622"
             x="-100"
             height="10"
             width="120"
             id="rect6213"
             style="opacity:1;fill:#cbcbcb;fill-opacity:1;stroke:none;stroke-width:0.1;stroke-linejoin:round;stroke-miterlimit:4;stroke-dasharray:none;stroke-dashoffset:19.60000038;stroke-opacity:1" />
        </g>
        <rect
           style="opacity:0.8;fill:#202020;fill-opacity:1;stroke:none;stroke-width:0.1;stroke-linejoin:round;stroke-miterlimit:4;stroke-dasharray:none;stroke-dashoffset:19.60000038;stroke-opacity:1"
           id="rect6217"
           width="7.7142854"
           height="30.857141"
           x="855.33344"
           y="-587.84271"
           transform="matrix(0.70710678,0.70710678,0.70710678,-0.70710678,0,0)" />
        <g
           transform="matrix(-1,0,0,1,342.50003,-408.95942)"
           id="g6242"
           style="opacity:0.8">
          <g
             id="g6266"
             style="">
            <rect
               y="1412.3622"
               x="-100"
               height="20"
               width="120"
               id="rect6244"
               style="opacity:1;fill:#202020;fill-opacity:1;stroke:none;stroke-width:0.1;stroke-linejoin:round;stroke-miterlimit:4;stroke-dasharray:none;stroke-dashoffset:19.60000038;stroke-opacity:1" />
            <rect
               y="1422.3622"
               x="-100"
               height="10"
               width="120"
               id="rect6246"
               style="opacity:1;fill:#cbcbcb;fill-opacity:1;stroke:none;stroke-width:0.1;stroke-linejoin:round;stroke-miterlimit:4;stroke-dasharray:none;stroke-dashoffset:19.60000038;stroke-opacity:1" />
          </g>
        </g>
        <g
           transform="matrix(0.70710678,0.70710678,0.70710678,-0.70710678,-612.65526,2074.0341)"
           id="g6248">
          <rect
             style="opacity:1;fill:#556bff;fill-opacity:1;stroke:none;stroke-width:0.1;stroke-linejoin:round;stroke-miterlimit:4;stroke-dasharray:none;stroke-dashoffset:19.60000038;stroke-opacity:1"
             id="rect6250"
             width="40"
             height="40"
             x="60"
             y="1432.3622" />
          <path
             style="opacity:1;fill:#fff755;fill-opacity:1;stroke:none;stroke-width:0.1;stroke-linejoin:round;stroke-miterlimit:4;stroke-dasharray:none;stroke-dashoffset:19.60000038;stroke-opacity:1"
             d="m 60,1432.3622 40,40 -40,0 z"
             id="path6252"
             inkscape:connector-curvature="0"
             sodipodi:nodetypes="cccc" />
        </g>
        <path
           style="fill:none;fill-rule:evenodd;stroke:#8efffa;stroke-width:6;stroke-linecap:butt;stroke-linejoin:bevel;stroke-miterlimit:4;stroke-dasharray:none;stroke-opacity:1"
           d="m 216.32991,1025.8457 -10.6066,-10.6066 3.53553,17.6776 -3.53553,-17.6776 17.67767,3.5355 -17.67767,-3.5355 74.24621,74.2462"
           id="path6254"
           inkscape:connector-curvature="0"
           sodipodi:nodetypes="ccccccc" />
        <path
           style="fill:none;fill-rule:evenodd;stroke:#49c344;stroke-width:6;stroke-linecap:butt;stroke-linejoin:bevel;stroke-miterlimit:4;stroke-dasharray:none;stroke-opacity:1"
           d="m 308.25379,1089.4853 74.24621,-74.2462 74.24621,74.2462"
           id="path6256"
           inkscape:connector-curvature="0"
           sodipodi:nodetypes="ccc" />
        <path
           style="fill:none;fill-rule:evenodd;stroke:#cb56a1;stroke-width:6;stroke-linecap:butt;stroke-linejoin:bevel;stroke-miterlimit:4;stroke-dasharray:none;stroke-opacity:1"
           d="m 308.25379,1117.7696 74.24621,74.2462 74.24621,-74.2462"
           id="path6258"
           inkscape:connector-curvature="0"
           sodipodi:nodetypes="ccc" />
        <path
           style="fill:none;fill-rule:evenodd;stroke:#3a74c2;stroke-width:6;stroke-linecap:butt;stroke-linejoin:miter;stroke-miterlimit:4;stroke-dasharray:none;stroke-opacity:1"
           d="m 485.03048,1089.4853 77.78175,-77.7818"
           id="path6260"
           inkscape:connector-curvature="0"
           sodipodi:nodetypes="cc" />
        <path
           style="fill:none;fill-rule:evenodd;stroke:#ccd031;stroke-width:6;stroke-linecap:butt;stroke-linejoin:miter;stroke-miterlimit:4;stroke-dasharray:none;stroke-opacity:1"
           d="m 485.03048,1117.7696 77.78175,77.7817"
           id="path6262"
           inkscape:connector-curvature="0"
           sodipodi:nodetypes="cc" />
        <flowRoot
           xml:space="preserve"
           id="flowRoot4193"
           style="font-style:normal;font-weight:normal;font-size:40px;line-height:125%;font-family:sans-serif;letter-spacing:0px;word-spacing:0px;fill:#000000;fill-opacity:1;stroke:none;stroke-width:1px;stroke-linecap:butt;stroke-linejoin:miter;stroke-opacity:1"><flowRegion
             id="flowRegion4195"><rect
               id="rect4197"
               width="664.68036"
               height="236.42621"
               x="52.527931"
               y="0" /></flowRegion><flowPara
             id="flowPara4199" /></flowRoot>      </g>
      <g
         style="stroke:none;stroke-width:1.00014663;stroke-miterlimit:4;stroke-dasharray:none;stroke-opacity:1"
         transform="matrix(1.3468025,0,0,1.3468025,-530.28483,-475.01458)"
         id="g6320">
        <circle
           style="opacity:1;fill:#ffffff;fill-opacity:1;stroke:none;stroke-width:1.00014663;stroke-linecap:butt;stroke-linejoin:bevel;stroke-miterlimit:4;stroke-dasharray:none;stroke-dashoffset:19.60000038;stroke-opacity:1"
           id="path6296"
           cx="900.21661"
           cy="915.039"
           r="25"
           clip-path="url(#clipPath6312)" />
        <ellipse
           style="opacity:1;fill:#007286;fill-opacity:1;stroke:none;stroke-width:1.00014663;stroke-linecap:butt;stroke-linejoin:bevel;stroke-miterlimit:4;stroke-dasharray:none;stroke-dashoffset:19.60000038;stroke-opacity:1"
           id="path6300"
           cx="874.71661"
           cy="915.039"
           clip-path="url(#clipPath6306)"
           rx="6.4285712"
           ry="8.2142859" />
        <path
           style="fill:none;fill-rule:evenodd;stroke:none;stroke-width:1.00014663;stroke-linecap:square;stroke-linejoin:bevel;stroke-miterlimit:4;stroke-dasharray:none;stroke-opacity:1"
           d="m 874.87279,902.62937 25.25087,12.40961 -25.25087,12.40961"
           id="path6294"
           inkscape:connector-curvature="0" />
        <path
           clip-path="none"
           id="circle6316"
           style="opacity:1;fill:none;fill-opacity:1;stroke:none;stroke-width:1.00014663;stroke-linecap:butt;stroke-linejoin:bevel;stroke-miterlimit:4;stroke-dasharray:none;stroke-dashoffset:19.60000038;stroke-opacity:1"
           sodipodi:type="arc"
           sodipodi:cx="900.21661"
           sodipodi:cy="915.039"
           sodipodi:rx="25"
           sodipodi:ry="25"
           sodipodi:start="2.6848654"
           sodipodi:end="3.6212389"
           sodipodi:open="true"
           d="m 877.7791,926.06433 a 25,25 0 0 1 0.25856,-22.56196" />
      </g>
      <path
         inkscape:connector-curvature="0"
         id="path6346"
         d="m 647.99603,740.64892 34.13313,16.71331 -34.13313,16.71327"
         style="fill:none;fill-opacity:1;fill-rule:evenodd;stroke:#202020;stroke-width:5.50915003;stroke-linecap:butt;stroke-linejoin:miter;stroke-miterlimit:4;stroke-dasharray:none;stroke-opacity:1;opacity:0.8" />
      <g
         transform="translate(0.30665048,-1.9428009)"
         id="g6360">
        <g
           style="stroke:none;stroke-opacity:1"
           transform="matrix(1.3468025,0,0,1.3468025,-531.20635,-293.07178)"
           id="g6336">
          <circle
             style="opacity:1;fill:#ffffff;fill-opacity:1;stroke:none;stroke-width:3;stroke-linecap:butt;stroke-linejoin:bevel;stroke-miterlimit:4;stroke-dasharray:none;stroke-dashoffset:19.60000038;stroke-opacity:1"
             id="circle6338"
             cx="900.21661"
             cy="915.039"
             r="25"
             clip-path="url(#clipPath6312)" />
          <ellipse
             style="opacity:1;fill:#af5800;fill-opacity:1;stroke:none;stroke-width:3;stroke-linecap:butt;stroke-linejoin:bevel;stroke-miterlimit:4;stroke-dasharray:none;stroke-dashoffset:19.60000038;stroke-opacity:1"
             id="ellipse6340"
             cx="874.71661"
             cy="915.039"
             clip-path="url(#clipPath6306)"
             rx="6.4285712"
             ry="8.2142859" />
          <path
             style="fill:none;fill-rule:evenodd;stroke:none;stroke-width:3;stroke-linecap:square;stroke-linejoin:bevel;stroke-miterlimit:4;stroke-dasharray:none;stroke-opacity:1"
             d="m 874.87279,902.62937 25.25087,12.40961 -25.25087,12.40961"
             id="path6342"
             inkscape:connector-curvature="0" />
          <path
             clip-path="none"
             id="path6344"
             style="opacity:1;fill:none;fill-opacity:1;stroke:none;stroke-width:3;stroke-linecap:butt;stroke-linejoin:bevel;stroke-miterlimit:4;stroke-dasharray:none;stroke-dashoffset:19.60000038;stroke-opacity:1"
             sodipodi:type="arc"
             sodipodi:cx="900.21661"
             sodipodi:cy="915.039"
             sodipodi:rx="25"
             sodipodi:ry="25"
             sodipodi:start="2.6848654"
             sodipodi:end="3.6212389"
             sodipodi:open="true"
             d="m 877.7791,926.06433 a 25,25 0 0 1 0.25856,-22.56196" />
        </g>
      </g>
      <path
         style="fill:none;fill-rule:evenodd;stroke:#202020;stroke-width:5.50915003;stroke-linecap:butt;stroke-linejoin:miter;stroke-miterlimit:4;stroke-dasharray:none;stroke-opacity:1;opacity:0.8"
         d="M 645.86687,920.6489 680,937.36221 645.86687,954.07548"
         id="path6369"
         inkscape:connector-curvature="0" />
    </g>
    <path
       sodipodi:type="star"
       style="opacity:1;fill:#ffe97e;fill-opacity:1;stroke:none;stroke-width:4;stroke-linecap:square;stroke-linejoin:bevel;stroke-miterlimit:4;stroke-dasharray:none;stroke-dashoffset:19.60000038;stroke-opacity:1"
       id="path6414"
       sodipodi:sides="5"
       sodipodi:cx="-361.95831"
       sodipodi:cy="-847.64429"
       sodipodi:r1="22.274952"
       sodipodi:r2="9.8669338"
       sodipodi:arg1="1.5707963"
       sodipodi:arg2="2.1991148"
       inkscape:flatsided="false"
       inkscape:rounded="0"
       inkscape:randomized="0"
       d="m -361.95831,-825.36934 -5.79964,-14.29243 -15.3851,-1.09918 11.80073,-9.93239 -3.70888,-14.97176 13.09289,8.15388 13.09288,-8.15388 -3.70887,14.97176 11.80073,9.93239 -15.3851,1.09918 z"
       inkscape:transform-center-y="1.0767895"
       transform="matrix(-0.70710678,0.70710678,-0.70710678,-0.70710678,-493.35989,482.21244)"
       inkscape:transform-center-x="-1.0767884" />
    <flowRoot
       xml:space="preserve"
       id="flowRoot4201"
       style="font-style:normal;font-weight:normal;font-size:40px;line-height:125%;font-family:sans-serif;letter-spacing:0px;word-spacing:0px;fill:#dcb413;fill-opacity:1;stroke:none;stroke-width:1;stroke-linecap:butt;stroke-linejoin:miter;stroke-miterlimit:4;stroke-dasharray:none;stroke-opacity:1;"
       transform="matrix(1.0609233,0,0,1.405178,-27.4222,264.44315)"><flowRegion
         id="flowRegion4203"><rect
           id="rect4205"
           width="674.78192"
           height="256.62927"
           x="48.48732"
           y="0"
           style="stroke-width:1;stroke-miterlimit:4;stroke-dasharray:none;fill:#dcb413;fill-opacity:1;" /></flowRegion><flowPara
         id="flowPara4207"
         style="font-style:normal;font-variant:normal;font-weight:normal;font-stretch:normal;font-size:43.75px;line-height:100%;font-family:'Cormorant Upright';-inkscape-font-specification:'Cormorant Upright';text-align:center;letter-spacing:0px;text-anchor:middle;fill:#dcb413;fill-opacity:1;stroke:#bca033;stroke-width:1;stroke-miterlimit:4;stroke-dasharray:none;stroke-opacity:1;"><flowSpan
           style="letter-spacing:-0.80985183px;fill:#dcb413;fill-opacity:1;"
           id="flowSpan4214">LOWER BOUNDS ON QUANTUM</flowSpan><flowSpan
           style="font-style:normal;font-variant:normal;font-weight:normal;font-stretch:normal;font-size:48.75px;line-height:100%;font-family:'Cormorant Upright';-inkscape-font-specification:'Cormorant Upright';letter-spacing:-0.03374383px;stroke-width:1;stroke-linecap:round;stroke-miterlimit:4;stroke-dasharray:none;fill:#dcb413;fill-opacity:1;"
           id="flowSpan4213"> METROLOGICAL PRECISION</flowSpan></flowPara></flowRoot>    <flowRoot
       xml:space="preserve"
       id="flowRoot4225"
       style="font-style:normal;font-weight:normal;font-size:40px;line-height:250%;font-family:sans-serif;letter-spacing:0px;word-spacing:0px;fill:#dcb413;fill-opacity:1;stroke:#dcb413;stroke-width:1px;stroke-linecap:butt;stroke-linejoin:miter;stroke-opacity:1;"
       transform="translate(-130.78295,89.046361)"><flowRegion
         id="flowRegion4227"><rect
           id="rect4229"
           width="538.21967"
           height="176.7767"
           x="243.44676"
           y="32.375393"
           style="line-height:250%;fill:#dcb413;fill-opacity:1;stroke:#dcb413;stroke-opacity:1;" /></flowRegion><flowPara
         id="flowPara4231"
         style="font-style:normal;font-variant:normal;font-weight:300;font-stretch:normal;font-size:25px;line-height:100%;font-family:'Heiti SC';-inkscape-font-specification:'Heiti SC Light';text-align:center;letter-spacing:-1.19000006px;text-anchor:middle;fill:#dcb413;fill-opacity:1;stroke:#dcb413;stroke-opacity:1;">University of the Basque Country</flowPara><flowPara
         style="font-style:normal;font-variant:normal;font-weight:300;font-stretch:normal;font-size:25px;line-height:250%;font-family:'Heiti SC';-inkscape-font-specification:'Heiti SC Light';text-align:center;letter-spacing:-1.19000006px;text-anchor:middle;fill:#dcb413;fill-opacity:1;stroke:#dcb413;stroke-opacity:1;"
         id="flowPara4233">PhD Thesis - 2016</flowPara></flowRoot>    <flowRoot
       transform="translate(-1.74324,572.97136)"
       style="font-style:normal;font-weight:normal;font-size:40px;line-height:120.00000477%;font-family:sans-serif;letter-spacing:0px;word-spacing:0px;fill:#dcb413;fill-opacity:1;stroke:none;stroke-width:1px;stroke-linecap:butt;stroke-linejoin:miter;stroke-opacity:1;"
       id="flowRoot4239"
       xml:space="preserve"><flowRegion
         id="flowRegion4241"><rect
           style="line-height:120.00000477%;fill:#dcb413;fill-opacity:1;"
           y="1.1723722"
           x="288.98764"
           height="247.37605"
           width="420.95798"
           id="rect4243"
           ry="0" /></flowRegion><flowPara
         style="font-style:italic;font-variant:normal;font-weight:300;font-stretch:normal;font-size:25px;line-height:120.00000477%;font-family:'Heiti SC';-inkscape-font-specification:'Heiti SC Light';text-align:end;text-anchor:end;fill:#dcb413;fill-opacity:1;"
         id="flowPara4245">Author:</flowPara><flowPara
         id="flowPara4247"
         style="font-style:normal;font-variant:normal;font-weight:normal;font-stretch:normal;font-size:25px;line-height:120.00000477%;font-family:'Heiti SC';-inkscape-font-specification:'Heiti SC';text-align:end;text-anchor:end;fill:#dcb413;fill-opacity:1;">Iagoba Apellaniz</flowPara><flowPara
         style="font-style:italic;font-variant:normal;font-weight:300;font-stretch:normal;font-size:25px;line-height:220.00000477%;font-family:'Heiti SC';-inkscape-font-specification:'Heiti SC Light';text-align:end;text-anchor:end;fill:#dcb413;fill-opacity:1;"
         id="flowPara4249">Director:</flowPara><flowPara
         style="font-style:normal;font-variant:normal;font-weight:normal;font-stretch:normal;font-size:25px;line-height:120.00000477%;font-family:'Heiti SC';-inkscape-font-specification:'Heiti SC';text-align:end;text-anchor:end;fill:#dcb413;fill-opacity:1;"
         id="flowPara4251">Géza Tóth</flowPara></flowRoot>    <g
       id="g4508"
       style="opacity:1"
       transform="translate(-86.0754,-49.827436)">
      <path
         style="fill:#dcb413;fill-opacity:1"
         d="m 724.19193,245.73094 -4.35,-0.18348 -0.18297,-6.3 c -0.10063,-3.465 -0.20395,-7.11 -0.22959,-8.1 -0.0257,-0.99 -0.17437,-2.0025 -0.33049,-2.25 -0.2189,-0.34701 -1.16189,-0.48597 -4.12041,-0.60715 -3.7796,-0.15482 -3.86326,-0.17358 -5.63654,-1.26407 -0.99,-0.60881 -2.475,-1.62333 -3.3,-2.2545 l -1.5,-1.14758 -0.15,-4.99936 c -0.0825,-2.74964 -0.285,-5.13264 -0.45,-5.29555 -0.165,-0.16291 -3.2025,-0.44978 -6.75,-0.6375 -7.11761,-0.37664 -7.50575,-0.48736 -8.46121,-2.41365 -0.45111,-0.90949 -0.5542,-3.15637 -0.87693,-19.1137 -0.28321,-14.00302 -0.285,-18.1638 -0.008,-18.44088 0.2604,-0.2604 3.51468,-0.39062 11.95433,-0.47835 10.92921,-0.1136 11.61941,-0.0892 11.99413,0.42322 0.25731,0.35189 0.3976,1.45595 0.3976,3.12907 0,1.60768 0.14181,2.77008 0.375,3.07391 0.37311,0.48612 2.23969,0.72882 9.92524,1.29048 1.85028,0.13521 3.25387,0.44086 4.65,1.01258 l 1.99976,0.81891 0.0854,3.04361 c 0.0816,2.90803 -10e-4,3.47339 -1.16513,7.93551 -0.35461,1.35973 -0.71909,1.40238 -4.47027,0.52302 -1.4025,-0.32877 -2.85375,-0.6679 -3.225,-0.75361 -0.57088,-0.1318 -0.675,-0.35435 -0.675,-1.44279 0,-1.70403 -0.40974,-2.17457 -2.52197,-2.89622 -2.88468,-0.98556 -3.30561,-0.86188 -4.06541,1.1946 -0.21337,0.5775 -1.25676,2.87572 -2.31866,5.10715 -2.26749,4.76485 -2.25838,5.19403 0.13603,6.40737 2.20454,1.11713 3.19134,1.19551 6.35518,0.50479 1.70295,-0.37179 2.94418,-0.50996 3.10814,-0.346 0.52979,0.52979 1.09738,3.80795 1.102,6.36475 l 0.005,2.58805 -1.425,0.60986 c -0.78375,0.33542 -2.27068,0.77499 -3.30429,0.97682 -1.60496,0.31339 -1.90643,0.4751 -2.06523,1.10778 -0.23789,0.94786 0.11131,4.76338 0.50292,5.49512 0.38746,0.72397 1.12128,0.81885 7.91707,1.0236 3.45046,0.10397 5.8321,0.301 6.075,0.50259 0.28963,0.24037 0.39953,1.26517 0.39953,3.72532 0,1.86656 0.12908,3.73323 0.28683,4.14816 0.33521,0.88166 1.43906,1.23038 4.78267,1.51089 3.47284,0.29136 3.33139,0.6336 3.32608,-8.04775 -0.003,-5.224 -0.10962,-7.43648 -0.38378,-7.9785 -0.53271,-1.05319 -1.7875,-1.56528 -4.24489,-1.73237 -1.1643,-0.0792 -2.28566,-0.2783 -2.49191,-0.44252 -0.46391,-0.36938 -0.52081,-6.10253 -0.0723,-7.28228 l 0.30273,-0.79624 2.62227,0.19468 c 8.24825,0.61234 13.27704,1.26703 13.59681,1.77012 0.0135,0.0212 0.20294,1.85337 0.42098,4.07141 0.45534,4.63203 0.59486,4.86243 2.8122,4.64407 0.76575,-0.0754 3.48478,-0.34109 6.04228,-0.5904 2.5575,-0.24931 4.89032,-0.5274 5.18405,-0.61797 0.48005,-0.14803 0.52555,-0.53394 0.45,-3.81659 l -0.084,-3.65191 -3.59491,0 -3.59491,0 -0.1948,-1.35215 c -0.35758,-2.482 -0.95568,-13.12983 -0.76537,-13.62576 0.16316,-0.42518 0.72764,-0.47819 4.31884,-0.4056 l 4.13115,0.0835 0.23974,2.55 c 0.13187,1.4025 0.34125,2.955 0.46531,3.45 l 0.22556,0.9 3.05366,-0.0333 c 3.67498,-0.04 3.96605,-0.21096 3.96488,-2.32847 -0.002,-3.75152 -1.05683,-9.47949 -1.83404,-9.95983 -0.6298,-0.38924 -5.3844,-1.40172 -8.32831,-1.77349 -1.91133,-0.24137 -3.21442,-0.54985 -3.37541,-0.79905 -0.14422,-0.22325 -0.22828,-2.0259 -0.1868,-4.0059 l 0.0754,-3.6 8.74214,-0.0795 8.74214,-0.0795 2.35786,2.40381 2.35786,2.4038 5.55,0.76026 c 4.78061,0.65486 5.62544,0.85 6.09417,1.40759 0.51102,0.60789 0.53844,1.46589 0.45,14.08238 -0.10852,15.48191 0.21731,14.00986 -3.40053,15.36319 -2.52245,0.94357 -3.15064,0.96185 -6.38764,0.18583 -3.09588,-0.74219 -3.39807,-0.74168 -4.86795,0.008 l -1.18805,0.6061 0,2.54675 c 0,2.45218 -0.0506,2.6404 -1.36335,5.06825 -0.74984,1.38682 -1.52609,2.65166 -1.725,2.81076 -0.19891,0.15909 -5.13592,0.56339 -10.97115,0.89845 l -10.60949,0.6092 -1.16551,1.13808 -1.1655,1.13809 0,7.99724 c 0,9.10876 -0.11415,10.38806 -1.02936,11.53584 l -0.65733,0.82437 -8.98166,0.0689 c -4.93991,0.0379 -10.93915,-0.0137 -13.33165,-0.11461 z"
         id="path4398"
         inkscape:connector-curvature="0"
         sodipodi:nodetypes="ccsccssscssssscscscsscscsssssssssccsscsssscscscsccscscscccccssscsscccsscscccccsssssccsscscccsscscc" />
      <path
         sodipodi:nodetypes="sssscssccssssssssssscssssscssssssccscscscssssssssssscssssssssssssssssssscscsssscsssssscsssssssscccsscscccsssssssssssssssssssssssssssssssscsssssssssssssssssssscsssssssssssssssssssssssccsssscsssscssssccssssssscsscccssssssssssssssssscsssssscsscccsssccscssscscscsssssssssssssssssscsssssssscsssssssssssssssssssssssssscsscscccsssssssssssssscsscscssssssssssssssssssssssscssscsssccsssssssssssssscssscscsssssssssscscssscsscssccsssssccsssssssssssssssssssssssssssscsssscssssssscsssssssssssssssssss"
         inkscape:connector-curvature="0"
         id="path4506"
         d="m 177.02248,245.36397 c -1.16368,-1.16369 -0.30832,-3.26116 1.32991,-3.26116 0.94628,0 1.93125,1.00088 1.93125,1.96243 0,1.53379 -2.16422,2.39566 -3.26116,1.29873 z m 11.33144,-1.39868 c -0.53108,-0.81053 -0.5397,-0.99928 -0.0829,-1.81587 1.00598,-1.79828 3.42668,-1.22036 3.42668,0.81809 0,1.96728 -2.26559,2.64332 -3.34379,0.99778 z m -6.74402,-1.30743 c -0.61156,-0.30489 -0.80744,-0.69126 -0.80744,-1.5927 0,-0.90143 0.19588,-1.2878 0.80744,-1.5927 1.70654,-0.85081 3.34637,0.69061 2.56324,2.40941 -0.45588,1.00053 -1.48684,1.31264 -2.56324,0.77599 z m -14.67045,-1.06772 c -0.47082,-0.71857 -0.5122,-1.06814 -0.20599,-1.74018 0.70157,-1.53978 3.19559,-1.44483 3.60936,0.1374 0.53753,2.05557 -2.24735,3.36708 -3.40337,1.60278 z m 32.48452,0.14831 c -1.49486,-0.56493 -1.3168,-2.79044 0.25619,-3.20178 1.10438,-0.2888 2.55149,1.242 2.05358,2.17237 -0.51127,0.95529 -1.42651,1.3632 -2.30977,1.02941 z m -25.98877,-1.78011 c -0.70416,-0.70415 -0.51057,-2.62242 0.30892,-3.061 1.81688,-0.97235 3.70648,0.91305 2.60298,2.59719 -0.62631,0.95588 -2.17341,1.2023 -2.9119,0.46381 z m 11.70295,-0.94573 c -0.56307,-1.05209 -0.42576,-1.84753 0.48091,-2.78604 0.46143,-0.47764 1.23259,-1.29647 1.71368,-1.81961 1.07413,-1.16802 1.39912,-1.18142 2.47835,-0.10215 1.09416,1.09416 1.06956,1.43448 -0.18867,2.60983 -0.5707,0.53312 -1.03764,1.1162 -1.03764,1.29575 0,0.616 -1.26543,1.4713 -2.17682,1.4713 -0.54744,0 -1.05483,-0.26734 -1.26981,-0.66903 z m 7.44897,-0.22038 c -0.29895,-0.29893 -0.54353,-0.83258 -0.54353,-1.18588 0,-0.35329 0.24458,-0.88694 0.54353,-1.18587 0.29893,-0.29895 0.83258,-0.54353 1.18587,-0.54353 1.47566,0 2.23484,1.86633 1.18588,2.91528 -0.29893,0.29894 -0.83258,0.54353 -1.18588,0.54353 -0.35329,0 -0.88694,-0.24459 -1.18587,-0.54353 z m -13.86115,-2.0039 c -1.09523,-1.67151 0.76042,-3.6228 2.53967,-2.67056 1.00214,0.53632 1.25089,1.64007 0.59517,2.64082 -0.74927,1.14353 -2.39483,1.15915 -3.13484,0.0297 z m 21.61876,-0.5655 c -0.38047,-0.38047 -0.69176,-0.81277 -0.69176,-0.96068 0,-0.70351 1.16146,-1.80637 1.90234,-1.80637 0.74089,0 1.90235,1.10286 1.90235,1.80637 0,0.46899 -1.36243,1.65244 -1.90235,1.65244 -0.28535,0 -0.83011,-0.31129 -1.21058,-0.69176 z m -42.97569,-0.0277 c -0.88644,-0.51631 -0.81613,-2.60216 0.10434,-3.09477 1.06537,-0.57017 2.14613,-0.27267 2.71706,0.74792 0.45682,0.81659 0.44821,1.00534 -0.0829,1.81588 -0.62149,0.94851 -1.67195,1.15218 -2.73851,0.53097 z M 162.14451,235.8 c -0.71161,-1.01597 -0.67918,-1.5117 0.15333,-2.34421 0.8309,-0.8309 1.82914,-0.8885 2.5694,-0.14823 0.64322,0.64322 0.71613,2.25844 0.12847,2.8461 -0.68797,0.68797 -2.25802,0.49323 -2.8512,-0.35366 z m 5.49875,-0.0803 c -0.46693,-0.46694 -0.84897,-1.01877 -0.84897,-1.2263 0,-0.72875 1.72033,-2.12478 2.36589,-1.91989 0.34374,0.10907 1.125,-0.0511 1.73616,-0.35597 1.02033,-0.50901 1.18089,-0.50867 1.96338,0.005 1.75367,1.14904 0.43572,4.11868 -1.54841,3.48894 -0.41369,-0.1313 -1.02426,-2.1e-4 -1.47742,0.3172 -1.02015,0.71454 -1.19228,0.69034 -2.19063,-0.30802 z m 28.11855,-1.94576 c -1.2279,-0.71519 -0.38657,-3.08522 1.09521,-3.08522 0.72815,0 1.75831,1.04844 1.75831,1.78949 0,0.64501 -1.08872,1.67308 -1.75664,1.6588 -0.27037,-0.006 -0.76397,-0.16917 -1.09688,-0.36307 z M 207.46,233.60399 c -0.29895,-0.29893 -0.54353,-0.83258 -0.54353,-1.18587 0,-0.35329 0.24458,-0.88694 0.54353,-1.18588 1.03789,-1.03789 2.91528,-0.29282 2.91528,1.15698 0,0.74033 -1.05276,1.7583 -1.8184,1.7583 -0.30434,0 -0.79795,-0.24458 -1.09688,-0.54353 z m -24.96282,-0.75881 c -0.20932,-0.13977 -0.57058,-0.61476 -0.80282,-1.05555 -1.00517,-1.90784 1.99236,-3.49563 3.23906,-1.71572 0.71161,1.01597 0.67918,1.5117 -0.15333,2.34421 -0.70919,0.70919 -1.60844,0.87741 -2.28291,0.42706 z m -6.1047,-0.80065 c -0.88643,-0.5163 -0.81613,-2.60216 0.10434,-3.09477 1.06537,-0.57017 2.14614,-0.27266 2.71707,0.74793 0.45682,0.81659 0.4482,1.00533 -0.0829,1.81587 -0.62149,0.94851 -1.67194,1.15219 -2.73851,0.53097 z m 11.35231,-0.51582 c -0.74027,-0.74025 -0.68267,-1.7385 0.14823,-2.5694 0.83251,-0.83251 1.32825,-0.86493 2.34421,-0.15333 0.84689,0.59319 1.04164,2.16322 0.35366,2.8512 -0.58765,0.58766 -2.20288,0.51475 -2.8461,-0.12847 z m 13.98511,-0.31919 c -0.26549,-0.31991 -0.3363,-0.88001 -0.18583,-1.46999 0.1337,-0.52423 0.2346,-1.40033 0.22423,-1.94685 -0.0284,-1.49501 0.5393,-2.29218 1.63236,-2.29218 0.52596,0 1.14306,0.18678 1.37135,0.41506 0.51818,0.51819 0.54191,1.88688 0.0382,2.19825 -0.22389,0.13836 -0.29033,0.69464 -0.16365,1.36994 0.15069,0.80321 0.0511,1.29924 -0.33953,1.68979 -0.69541,0.69541 -2.01448,0.71384 -2.57704,0.036 z m -37.85079,-0.37247 c -0.9247,-0.9247 -0.58725,-2.65425 0.59873,-3.06879 1.76461,-0.61679 3.18464,0.91754 2.30554,2.49109 -0.63349,1.13391 -2.06359,1.41838 -2.90427,0.5777 z m 6.94642,-1.12674 c -1.11696,-1.23423 -0.26778,-3.17217 1.39001,-3.17217 0.86896,0 1.84225,1.03679 1.84225,1.96244 0,1.58454 -2.16109,2.39336 -3.23226,1.20973 z m -13.30085,-0.12841 c -0.6433,-0.64331 -0.49042,-2.17657 0.28717,-2.88029 1.57478,-1.42515 4.01826,1.01834 2.59312,2.59311 -0.70372,0.7776 -2.23698,0.93048 -2.88029,0.28718 z m 35.7542,-0.47436 c -0.72216,-0.72216 -0.68729,-1.64031 0.089,-2.34284 0.82212,-0.74402 1.54356,-0.72479 2.25385,0.0601 1.53917,1.70076 -0.72184,3.90377 -2.34286,2.28276 z m -41.89202,-1.68898 c -0.46693,-0.46694 -0.84897,-1.07821 -0.84897,-1.35841 0,-0.5194 1.56626,-1.94317 2.13765,-1.94317 0.44238,0 2.01292,1.61919 2.01292,2.07528 0,0.48978 -1.5855,2.07529 -2.07529,2.07529 -0.20753,0 -0.75937,-0.38205 -1.22631,-0.84899 z m 56.07314,-0.3863 c -0.77652,-0.77652 -0.68246,-2.12483 0.18044,-2.58665 1.79145,-0.95875 3.53462,0.98138 2.2034,2.45235 -0.74048,0.81823 -1.64874,0.8694 -2.38384,0.1343 z m -41.55819,-1.00678 c -0.47082,-0.71857 -0.5122,-1.06814 -0.20599,-1.74018 0.70157,-1.53978 3.19559,-1.44483 3.60936,0.1374 0.53753,2.05557 -2.24735,3.36708 -3.40337,1.60278 z m 32.00793,-0.46662 c -0.60995,-0.49391 -0.73042,-0.83981 -0.547,-1.57061 0.12937,-0.51546 0.38631,-0.84383 0.57097,-0.7297 0.18466,0.11414 0.33574,0.0427 0.33574,-0.1588 0,-0.50031 1.49333,-0.46402 2.0061,0.0488 0.58204,0.58203 0.51662,1.85515 -0.12847,2.50023 -0.70906,0.70906 -1.27895,0.68618 -2.23734,-0.0898 z m 15.50329,-0.60404 c -0.70728,-1.5523 0.74423,-3.00382 2.29654,-2.29654 0.97666,0.445 1.24471,2.00486 0.4765,2.77305 -0.76819,0.76819 -2.32804,0.50015 -2.77304,-0.47651 z M 158.067,224.11698 c -0.23761,-0.38047 -0.69313,-0.69176 -1.01229,-0.69176 -1.77664,0 -2.76225,-1.59235 -1.84864,-2.98667 0.68721,-1.04883 2.4006,-1.12043 3.02146,-0.12626 0.23761,0.38047 0.77258,0.69176 1.18882,0.69176 1.61154,0 2.45247,2.10902 1.30032,3.26116 -0.75647,0.75648 -2.13276,0.67947 -2.64967,-0.14823 z m 4.22129,-2.439 c -0.57017,-1.06539 -0.27267,-2.14615 0.74792,-2.71708 0.8166,-0.45682 1.00534,-0.44821 1.81588,0.0829 0.95243,0.62405 1.1435,1.55927 0.54651,2.67477 -0.50855,0.95023 -2.59461,0.92301 -3.11031,-0.0406 z m 28.84114,-0.67101 c -1.02027,-0.41174 -1.85289,-1.69437 -1.85289,-2.85435 0,-0.53245 0.40964,-1.5871 0.91032,-2.34366 1.07401,-1.62296 1.00434,-3.5323 -0.18404,-5.04307 -0.95987,-1.22028 -0.91702,-2.46404 0.13843,-4.01725 1.18141,-1.73862 1.14513,-3.40563 -0.10458,-4.8043 -1.2578,-1.40774 -3.15602,-1.46712 -5.0836,-0.15902 -1.64569,1.11679 -2.40167,1.1145 -4.02757,-0.0122 -1.70098,-1.1788 -3.38739,-1.1788 -5.08839,0 -1.73529,1.20256 -2.95696,1.15838 -4.26974,-0.1544 -0.90699,-0.90699 -1.02521,-1.22916 -0.84916,-2.31403 0.42565,-2.62297 2.65119,-3.50866 4.89605,-1.94844 1.78958,1.2438 3.90332,1.33504 5.0905,0.21973 1.37904,-1.29553 2.64126,-1.3306 4.42123,-0.12284 1.90344,1.29154 2.97066,1.33444 4.66097,0.18737 1.97897,-1.34296 2.97304,-1.41961 4.26898,-0.32915 1.41753,1.19277 1.50618,2.9475 0.23589,4.66929 -0.48595,0.65866 -0.8647,1.64342 -0.8647,2.24822 0,0.6048 0.37875,1.58956 0.8647,2.24823 0.50601,0.68585 0.8647,1.63996 0.8647,2.30006 0,0.63285 -0.37958,1.68737 -0.8647,2.40223 -0.47559,0.70082 -0.8647,1.76702 -0.8647,2.36933 0,0.625 0.37121,1.59826 0.8647,2.26716 1.25653,1.70312 1.18021,3.47772 -0.19948,4.63864 -1.11284,0.9364 -1.72754,1.05102 -2.96291,0.55248 z m 9.90008,-0.36186 c -0.47634,-0.89005 -0.15052,-1.9536 0.74537,-2.43306 1.48598,-0.79527 3.15642,1.52589 1.95948,2.72283 -0.67479,0.67479 -2.28071,0.50274 -2.70485,-0.28977 z m 5.38775,-0.0639 c -0.29613,-0.42279 -0.53844,-0.94343 -0.53844,-1.15698 0,-0.56199 1.16749,-1.5331 1.84311,-1.5331 0.63028,0 1.96158,1.17373 1.96158,1.7294 0,0.59309 -1.35068,1.72941 -2.05567,1.72941 -0.36968,0 -0.91444,-0.34593 -1.21058,-0.76873 z m -34.58229,-0.38501 c -1.85199,-1.85199 -0.68106,-4.72624 1.9254,-4.72624 3.46399,0 3.67629,4.86217 0.23636,5.41281 -1.05947,0.16958 -1.42016,0.055 -2.16176,-0.68657 z m 9.27502,-0.002 c -1.22019,-1.04957 -1.22657,-2.44246 -0.0193,-4.21911 1.09461,-1.61088 1.1696,-3.03527 0.24003,-4.55983 -1.07274,-1.75937 -3.83795,-1.98108 -5.7685,-0.46251 -1.93689,1.52352 -4.61736,0.35133 -4.61736,-2.01927 0,-2.5958 2.56113,-3.62056 4.84234,-1.93753 0.81497,0.60127 1.61765,0.8647 2.63477,0.8647 1.05561,0 1.74874,-0.24066 2.49036,-0.8647 1.34502,-1.13176 2.93424,-1.13791 4.05644,-0.0157 1.095,1.095 1.08949,2.49532 -0.0157,3.99334 -0.59211,0.80254 -0.86471,1.62037 -0.86471,2.59411 0,0.97375 0.2726,1.79157 0.86471,2.59411 1.1052,1.49803 1.11071,2.89835 0.0157,3.99335 -1.08937,1.08937 -2.61969,1.10484 -3.85878,0.039 z m 31.06387,0.39487 c -0.73035,-0.73035 -0.49441,-2.19265 0.43396,-2.68948 0.72458,-0.38778 0.97806,-0.36984 1.72941,0.12246 0.94683,0.6204 1.08968,1.25295 0.52233,2.31305 -0.4058,0.75825 -2.02802,0.91165 -2.6857,0.25397 z m -61.29009,-0.62259 c -1.11045,-1.11045 -0.81982,-2.60397 0.61268,-3.14861 2.01616,-0.76655 3.50007,2.0632 1.73153,3.30194 -1.01597,0.7116 -1.5117,0.67918 -2.34421,-0.15333 z m -4.15057,-3.11293 c -0.83251,-0.83251 -0.86493,-1.32825 -0.15333,-2.3442 0.59319,-0.84689 2.16323,-1.04165 2.8512,-0.35367 0.58766,0.58765 0.51475,2.20288 -0.12847,2.84611 -0.74026,0.74026 -1.7385,0.68266 -2.5694,-0.14824 z m 13.30693,-0.35636 c -0.4963,-0.5484 -0.56487,-0.90045 -0.31302,-1.6071 0.4564,-1.28058 1.28195,-1.71674 2.46601,-1.30287 0.76872,0.26869 0.99296,0.58501 1.08311,1.5279 0.18697,1.9554 -1.90766,2.84998 -3.2361,1.38207 z m -5.00579,-0.3354 c -0.8309,-0.83091 -0.8885,-1.82914 -0.14823,-2.5694 0.64322,-0.64322 2.25844,-0.71613 2.8461,-0.12847 0.68797,0.68797 0.49323,2.25802 -0.35366,2.8512 -1.01597,0.7116 -1.5117,0.67917 -2.34421,-0.15333 z m 48.02455,-0.84264 c -0.48953,-1.07444 -0.19718,-1.8253 0.90648,-2.32816 0.72497,-0.33032 0.99054,-0.2914 1.56617,0.22953 0.88043,0.79678 0.89277,2.11834 0.0241,2.58322 -1.12794,0.60366 -2.08563,0.41779 -2.49678,-0.48459 z m 7.38556,0.42758 c -0.22828,-0.22828 -0.41506,-0.85086 -0.41506,-1.38352 0,-0.53266 -0.15206,-0.96847 -0.3379,-0.96847 -0.18585,0 -0.59286,-0.38911 -0.90449,-0.8647 -0.52484,-0.80101 -0.52484,-0.92839 0,-1.7294 0.31163,-0.47559 0.87429,-0.8647 1.25037,-0.8647 0.88067,0 2.17684,1.29096 1.93332,1.92556 -0.10308,0.26872 0.19614,0.8722 0.66502,1.34106 1.0328,1.03281 1.05681,1.3714 0.16073,2.26747 -0.78076,0.78076 -1.73561,0.89309 -2.35199,0.2767 z m 5.52721,-2.0349 c -0.37818,-0.60556 -0.36046,-0.8572 0.11103,-1.57679 0.79315,-1.21051 2.61526,-1.04017 3.07934,0.28786 0.4279,1.22456 -0.2187,2.00949 -1.65535,2.00949 -0.7249,0 -1.23439,-0.23917 -1.53502,-0.72056 z m -65.27031,-2.05697 c -1.42514,-1.57476 1.01834,-4.01825 2.59312,-2.5931 0.77759,0.70371 0.93047,2.23698 0.28717,2.88029 -0.6433,0.6433 -2.17657,0.49042 -2.88029,-0.28719 z m 8.55274,-0.75046 c -0.71434,-0.71433 -0.49406,-2.28428 0.40296,-2.87203 1.85955,-1.21842 4.0007,1.18601 2.44314,2.74356 -0.64322,0.64322 -2.25844,0.71612 -2.8461,0.12847 z m 44.776,-0.90923 c -1.14369,-1.26375 -0.50404,-2.82628 1.15697,-2.82628 1.75905,0 2.39032,1.91902 0.96069,2.92038 -0.99599,0.6976 -1.41815,0.67886 -2.11766,-0.0941 z m 8.27224,-1.29452 c -0.29895,-0.29894 -0.54353,-0.76588 -0.54353,-1.03765 0,-0.74875 1.36702,-1.95798 1.95737,-1.73144 0.28621,0.10987 0.65781,0.19969 0.82579,0.19969 0.16799,0 0.47762,0.32172 0.68806,0.71496 0.87409,1.63323 -1.58883,3.19328 -2.92769,1.85444 z m -57.7332,-1.12664 c -0.31484,-0.3479 -0.57243,-0.97049 -0.57243,-1.38353 0,-0.41305 -0.15206,-0.75099 -0.33791,-0.75099 -0.18585,0 -0.59704,-0.3955 -0.91377,-0.87888 -0.4585,-0.69977 -0.49777,-1.05025 -0.19268,-1.71985 0.81827,-1.79589 3.51964,-1.22025 3.51964,0.74998 0,0.44611 0.14453,0.8111 0.32118,0.8111 0.6056,0 1.40823,1.08715 1.40823,1.90744 0,0.86351 -1.14347,1.89725 -2.09865,1.89725 -0.30865,0 -0.81878,-0.28463 -1.13361,-0.63252 z m -7.63828,-0.94865 c -1.16368,-1.16368 -0.30832,-3.26116 1.32991,-3.26116 0.94627,0 1.93125,1.00089 1.93125,1.96244 0,1.53378 -2.16424,2.39566 -3.26116,1.29872 z m 12.94582,-1.53176 c -0.83251,-0.83251 -0.86493,-1.32825 -0.15333,-2.3442 1.01491,-1.44898 3.61214,-0.57853 3.61214,1.21058 0,0.68027 -1.30188,1.82539 -2.07529,1.82539 -0.38046,0 -1.00305,-0.3113 -1.38352,-0.69177 z m 43.30428,-0.76093 c -0.22828,-0.22828 -0.41505,-0.84539 -0.41505,-1.37136 0,-1.73124 2.2958,-2.16155 3.13787,-0.58814 0.79528,1.486 -1.52588,3.15643 -2.72282,1.9595 z m 4.84234,0 c -0.22829,-0.22828 -0.41506,-0.74192 -0.41506,-1.14141 0,-0.97887 0.64178,-1.55646 1.7294,-1.55646 1.08763,0 1.72941,0.57759 1.72941,1.55646 0,0.39949 -0.18678,0.91313 -0.41506,1.14141 -0.53504,0.53504 -2.09364,0.53504 -2.62869,0 z m 8.53666,-0.58639 c -0.69587,-0.56348 -0.7611,-0.79423 -0.46443,-1.64293 0.46801,-1.33881 2.2494,-1.57759 3.06649,-0.41103 0.70748,1.01006 0.69554,1.1825 -0.13971,2.01776 -0.86309,0.86309 -1.43088,0.87144 -2.46235,0.0362 z m -4.02534,-2.85756 c -0.54755,-0.54754 -0.55629,-2.10214 -0.0149,-2.64356 0.63541,-0.63541 1.82663,-0.49491 2.54633,0.30034 0.59084,0.65289 0.60213,0.79645 0.12916,1.64294 -0.57135,1.02254 -1.97018,1.39072 -2.66062,0.70028 z m -61.46529,-0.96939 c -1.33121,-1.47097 0.41196,-3.4111 2.2034,-2.45235 0.95459,0.51089 0.9895,2.27197 0.055,2.77212 -0.98076,0.52488 -1.56937,0.44154 -2.25835,-0.31977 z m 11.08028,-0.21159 c -1.03789,-1.03789 -0.29282,-2.91528 1.15698,-2.91528 0.74033,0 1.7583,1.05277 1.7583,1.8184 0,0.74797 -0.94086,1.64041 -1.7294,1.64041 -0.35329,0 -0.88694,-0.24458 -1.18588,-0.54353 z m -5.03998,-0.49411 c -0.8327,-0.83271 -0.84624,-1.00905 -0.15332,-1.99833 1.00136,-1.42964 2.92037,-0.79836 2.92037,0.96069 0,1.72331 -1.51372,2.29096 -2.76705,1.03764 z m 43.77975,-0.31736 c -1.2158,-1.34344 -0.12529,-3.11256 1.64479,-2.6683 1.31086,0.32901 1.64345,1.84627 0.59144,2.69813 -0.99403,0.80492 -1.48674,0.79835 -2.23623,-0.0299 z m 6.95989,-1.41979 c -0.27811,-0.39706 -0.7106,-0.61485 -1.00025,-0.5037 -0.28066,0.10769 -0.88301,-0.10595 -1.33856,-0.47487 -0.71464,-0.57867 -0.78092,-0.80615 -0.48311,-1.65806 0.45921,-1.31364 2.24847,-1.5789 3.03885,-0.4505 0.28842,0.41179 0.69933,0.64059 0.91313,0.50845 0.2138,-0.13214 0.77101,0.0104 1.23823,0.31636 0.91193,0.59752 1.1264,1.8548 0.43443,2.54677 -0.6582,0.6582 -2.25604,0.49603 -2.80272,-0.28445 z m -58.0896,-2.09524 c -0.86995,-0.5067 -0.79411,-2.26807 0.11868,-2.75659 1.76126,-0.9426 3.49296,1.0274 2.1792,2.47909 -0.6532,0.72177 -1.38366,0.80998 -2.29788,0.2775 z m 15.6669,-0.47209 c -0.57611,-0.69418 -0.32411,-1.92565 0.50627,-2.47395 1.4617,-0.96517 3.34697,1.12711 2.22919,2.47395 -0.22813,0.27489 -0.84362,0.49979 -1.36773,0.49979 -0.52411,0 -1.1396,-0.2249 -1.36773,-0.49979 z m 32.23363,-0.0764 c -1.55403,-0.62607 -1.03399,-3.22841 0.64516,-3.22841 1.09064,0 2.09839,1.14075 1.79202,2.02852 -0.3853,1.11651 -1.40187,1.61699 -2.43718,1.19989 z m -41.71766,-1.33199 c -1.21854,-1.21853 -0.025,-3.22143 1.66671,-2.79685 0.98863,0.24813 1.54295,1.70744 0.98643,2.59689 -0.47821,0.76427 -1.97595,0.87716 -2.65314,0.19996 z m 56.01392,-0.36467 c -0.74176,-0.74175 -0.68217,-1.64495 0.15871,-2.40593 1.51103,-1.36747 3.70105,0.87585 2.39332,2.45156 -0.54588,0.65775 -1.87238,0.63403 -2.55203,-0.0457 z m -50.69626,-1.18587 c -0.82916,-0.82917 -0.84497,-1.01086 -0.17159,-1.97225 0.39051,-0.55754 0.43517,-0.96624 0.17915,-1.63964 -0.27615,-0.72635 -0.21062,-1.02738 0.34453,-1.58253 0.86925,-0.86925 1.54122,-0.86754 2.41496,0.006 0.83191,0.83191 0.84595,1.00947 0.15755,1.99229 -0.41641,0.5945 -0.44913,0.92171 -0.14836,1.48368 0.3016,0.56355 0.26545,0.90475 -0.16552,1.5625 -0.66946,1.02173 -1.68072,1.07973 -2.61072,0.14974 z m 8.84467,-0.54353 c -1.03789,-1.0379 -0.29282,-2.91528 1.15698,-2.91528 0.74033,0 1.7583,1.05277 1.7583,1.8184 0,1.39617 -1.90081,2.11135 -2.91528,1.09688 z m 22.51116,-0.43488 c -1.21576,-1.3434 -0.39798,-2.97107 1.38911,-2.76481 0.70117,0.0809 1.06031,0.38195 1.311,1.09884 0.2968,0.84876 0.23161,1.07942 -0.46431,1.64294 -1.01299,0.82027 -1.50968,0.82538 -2.2358,0.0231 z m 12.9861,0.21747 c -0.69719,-0.69719 -0.47692,-1.94963 0.44965,-2.55674 0.80101,-0.52484 0.92839,-0.52484 1.7294,0 1.53154,1.0035 0.95882,2.9718 -0.8647,2.9718 -0.49461,0 -1.08607,-0.18678 -1.31435,-0.41506 z m -6.28286,-1.29161 c -0.19693,-0.36796 -0.35805,-0.8886 -0.35805,-1.15697 0,-0.62365 1.106,-1.63281 1.7895,-1.63281 0.66572,0 1.66931,1.09321 1.66931,1.8184 0,1.47317 -2.42555,2.23303 -3.10076,0.97138 z m -24.05216,-1.06179 c -0.52094,-0.57562 -0.55986,-0.84119 -0.22954,-1.56617 0.50286,-1.10366 1.25373,-1.39601 2.32815,-0.90647 0.60311,0.2748 0.84265,0.66133 0.84265,1.35982 0,1.8001 -1.72771,2.45378 -2.94126,1.11282 z m 12.39692,0.33679 c -1.67332,-0.65021 -1.24278,-3.10243 0.5447,-3.10243 0.54071,0 1.16978,0.22491 1.39791,0.49979 1.01598,1.22419 -0.44674,3.18389 -1.94261,2.60264 z m -5.86249,-0.67432 c -0.94954,-0.38366 -1.22682,-1.50417 -0.59534,-2.40573 1.07855,-1.53984 3.58174,-0.30599 2.91847,1.43854 -0.25793,0.6784 -1.15348,1.42782 -1.53462,1.2842 -0.0319,-0.0121 -0.38683,-0.15471 -0.78851,-0.31701 z m -26.06325,-1.71361 c -0.19694,-0.36796 -0.35806,-0.8886 -0.35806,-1.15697 0,-0.62365 1.106,-1.63281 1.78951,-1.63281 0.66571,0 1.6693,1.09321 1.6693,1.8184 0,1.47317 -2.42555,2.23303 -3.10075,0.97138 z m 12.21924,-0.21159 c -0.80603,-0.80602 -0.83799,-0.94516 -0.37739,-1.64293 0.62563,-0.94777 2.05568,-1.15726 2.80242,-0.41051 0.74709,0.74708 0.70918,1.40366 -0.12945,2.2423 -0.90031,0.9003 -1.23386,0.87287 -2.29558,-0.18886 z m 24.84701,-0.91796 c -0.57899,-0.579 -0.51851,-2.18144 0.1018,-2.69622 0.28426,-0.23592 0.90585,-0.35457 1.38132,-0.26368 0.49268,0.0942 1.03242,-0.0371 1.25493,-0.30518 0.48274,-0.58166 2.09778,-0.61531 2.65771,-0.0553 1.11863,1.11862 -0.25118,3.23696 -1.83594,2.8392 -0.44229,-0.11102 -0.92108,0.0321 -1.18935,0.35526 -0.53311,0.64236 -1.78742,0.70902 -2.37045,0.12599 z m 8.08373,-1.16612 c -0.79879,-0.79879 -0.66338,-1.78316 0.33534,-2.43755 1.23682,-0.81038 2.57994,-0.19863 2.57994,1.17509 0,0.53674 -0.18678,1.16265 -0.41506,1.39093 -0.58202,0.58203 -1.85513,0.51662 -2.50022,-0.12847 z m 5.05974,0.12847 c -0.22828,-0.22828 -0.41506,-0.74191 -0.41506,-1.1414 0,-0.97886 0.64179,-1.55647 1.72941,-1.55647 1.08762,0 1.7294,0.57761 1.7294,1.55647 0,0.97885 -0.64178,1.55646 -1.7294,1.55646 -0.49461,0 -1.08607,-0.18677 -1.31435,-0.41506 z m -43.13121,-0.74679 c -0.61014,-0.93119 -0.39424,-1.80838 0.57245,-2.32572 1.57349,-0.84212 3.17699,0.82601 2.21108,2.30019 -0.71857,1.09666 -2.07357,1.10909 -2.78353,0.0256 z m 13.15595,-0.20773 c -0.81888,-0.90486 -0.46304,-2.35228 0.6468,-2.63083 0.55019,-0.1381 0.8867,-0.53074 1.01816,-1.18803 0.2246,-1.12301 1.24759,-1.60068 2.26357,-1.05694 1.39126,0.74457 1.28126,2.63459 -0.1746,2.99999 -0.47454,0.1191 -0.82655,0.46327 -0.82655,0.80812 0,0.71744 -1.05398,1.74551 -1.78951,1.74551 -0.28844,0 -0.80048,-0.30502 -1.13787,-0.67782 z m 8.09217,-0.40358 c -0.60349,-1.12762 0.0958,-2.37741 1.33035,-2.37741 1.1591,0 1.806,0.55753 1.806,1.55647 0,0.99395 -0.64561,1.55646 -1.78641,1.55646 -0.62127,0 -1.0942,-0.25768 -1.34994,-0.73552 z m -13.26828,-1.53765 c -0.29895,-0.29894 -0.54353,-0.81958 -0.54353,-1.15697 0,-0.72815 1.04844,-1.75831 1.7895,-1.75831 0.66572,0 1.66931,1.09321 1.66931,1.8184 0,0.74796 -0.94087,1.64041 -1.72941,1.64041 -0.35329,0 -0.88694,-0.24459 -1.18587,-0.54353 z m 18.8416,-0.9939 c -1.11779,-1.34685 0.76748,-3.43913 2.22919,-2.47396 0.83037,0.5483 1.08238,1.77977 0.50626,2.47396 -0.53508,0.64473 -2.20037,0.64473 -2.73545,0 z m -24.90153,-1.5578 c -0.80236,-0.80237 -0.86204,-1.16161 -0.3514,-2.11573 0.4058,-0.75824 2.02801,-0.91164 2.68569,-0.25396 0.46194,0.46193 0.54082,1.62618 0.15036,2.2189 -0.53223,0.80789 -1.75343,0.882 -2.48465,0.15079 z m 31.03641,-0.90927 c -0.52189,-1.14543 -0.0206,-2.00817 1.25508,-2.15988 1.14609,-0.13631 1.93302,0.46138 1.93302,1.46816 0,1.74089 -2.46626,2.27601 -3.1881,0.69172 z m -13.73879,-0.1248 c -0.85512,-0.85513 -0.86997,-1.02682 -0.1746,-2.0196 0.67533,-0.96417 1.92277,-0.9882 2.76883,-0.0533 0.59109,0.65314 0.60226,0.79612 0.12851,1.64293 -0.65533,1.17141 -1.80049,1.35225 -2.72274,0.42999 z m -7.2986,-1.69232 c -1.052,-0.85187 -0.7194,-2.36912 0.59145,-2.69813 1.77008,-0.44426 2.8606,1.32485 1.64479,2.66829 -0.74949,0.82818 -1.24221,0.83475 -2.23624,0.0298 z m 11.84295,-1.16518 c -0.22828,-0.22828 -0.41505,-0.8542 -0.41505,-1.39094 0,-1.37372 1.34312,-1.98547 2.57993,-1.17508 1.03451,0.67784 1.12977,1.60917 0.24635,2.40865 -0.74306,0.67246 -1.82549,0.74311 -2.41123,0.15737 z"
         style="fill:#dcb413;fill-opacity:1" />
    </g>
    <text
       xml:space="preserve"
       style="font-style:normal;font-weight:normal;font-size:12.5px;line-height:0%;font-family:sans-serif;letter-spacing:-35.31000137px;word-spacing:0px;fill:#000000;fill-opacity:1;stroke:none;stroke-width:1px;stroke-linecap:butt;stroke-linejoin:miter;stroke-opacity:1"
       x="1002.8571"
       y="440.93365"
       id="text4210"
       sodipodi:linespacing="0%"><tspan
         sodipodi:role="line"
         id="tspan4212"
         x="1002.8571"
         y="440.93365" /></text>
    <text
       xml:space="preserve"
       style="font-style:normal;font-weight:normal;font-size:12.5px;line-height:0%;font-family:sans-serif;letter-spacing:-35.31000137px;word-spacing:0px;fill:#000000;fill-opacity:1;stroke:none;stroke-width:1px;stroke-linecap:butt;stroke-linejoin:miter;stroke-opacity:1"
       x="817.85712"
       y="247.3622"
       id="text4216"
       sodipodi:linespacing="0%"><tspan
         sodipodi:role="line"
         id="tspan4218"
         x="817.85712"
         y="247.3622" /></text>
    <g
       id="g4352"
       transform="matrix(-1,0,0,-1,765,1114.7244)">
      <text
         xml:space="preserve"
         style="font-style:normal;font-weight:normal;font-size:12.5px;line-height:0%;font-family:sans-serif;letter-spacing:-35.31000137px;word-spacing:0px;fill:#000000;fill-opacity:1;stroke:none;stroke-width:1px;stroke-linecap:butt;stroke-linejoin:miter;stroke-opacity:1"
         x="147.85712"
         y="440.93365"
         id="text4342"
         sodipodi:linespacing="0%"><tspan
           sodipodi:role="line"
           id="tspan4344"
           x="147.85712"
           y="440.93365" /></text>
      <text
         xml:space="preserve"
         style="font-style:normal;font-weight:normal;font-size:12.5px;line-height:0%;font-family:sans-serif;letter-spacing:-35.31000137px;word-spacing:0px;fill:#000000;fill-opacity:1;stroke:none;stroke-width:1px;stroke-linecap:butt;stroke-linejoin:miter;stroke-opacity:1"
         x="-37.142883"
         y="247.3622"
         id="text4346"
         sodipodi:linespacing="0%"><tspan
           sodipodi:role="line"
           id="tspan4348"
           x="-37.142883"
           y="247.3622" /></text>
    </g>
  </g>
</svg>
